# xmcd CD database file
#
# Track frame offsets:
#	150
#	19818
#	35084
#	49831
#	63760
#	77793
#	92665
#	105362
#	121990
#	137699
#	156198
#	171116
#
# Disc length: 2480 seconds
#
# Revision: 0
# Processed by: cddbd v1.5.2PL0 Copyright (c) Steve Scherf et al.
# Submitted via: jetAudio 7
#
DISCID=9409ae0c
DTITLE=Orawee Sujjanon - Ka kruan muang Vol 1
DYEAR=1900
DGENRE=Folk
TTITLE0=01. Mon ruk dok kum tai (4:22)
TTITLE1=02. Chai deaw nai duang jai (3:23)
TTITLE2=03. Weaw sieng sueng (3:17)
TTITLE3=04. Kid tueng tur chun yak rong hai (3:06)
TTITLE4=05. Sai yok hang kwam lung (3:07)
TTITLE5=06. Chun pai kang kuen tee nai mai dai (3:18)
TTITLE6=07. Sao nuer kor mee hua jai (2:49)
TTITLE7=08. Badd ta yuk jai (3:42)
TTITLE8=09. Sao sa uen (3:29)
TTITLE9=10. Sed nuer kang kieng (4:07)
TTITLE10=11. Muen kao koey keaw (3:19)
TTITLE11=12. Fak din (3:19)
EXTD=
EXTT0=
EXTT1=
EXTT2=
EXTT3=
EXTT4=
EXTT5=
EXTT6=
EXTT7=
EXTT8=
EXTT9=
EXTT10=
EXTT11=
PLAYORDER=
